<?xml version="1.0" encoding="UTF-8" standalone="no"?>
<svg width="13px" height="16px" viewBox="0 0 13 16" version="1.1" xmlns="http://www.w3.org/2000/svg" xmlns:xlink="http://www.w3.org/1999/xlink" xmlns:sketch="http://www.bohemiancoding.com/sketch/ns">
    <title>Kuler</title>
    <description>Created with Sketch (http://www.bohemiancoding.com/sketch)</description>
    <defs></defs>
    <g id="Page 1" stroke="none" stroke-width="1" fill="none" fill-rule="evenodd">
        <path d="M10.667,1.609 C11.328,1.609 11.865,2.135 11.865,2.784 C11.865,3.432 11.327,3.96 10.667,3.96 C10.496,3.96 10.335,3.921 10.192,3.863 L8.619,5.401 C9.209,6.118 9.561,7.024 9.561,8.013 C9.561,9 9.203,9.907 8.619,10.62 L10.191,12.149 C10.337,12.086 10.496,12.051 10.665,12.051 C11.326,12.051 11.864,12.581 11.864,13.225 C11.864,13.875 11.325,14.405 10.665,14.405 C10.005,14.405 9.468,13.875 9.468,13.225 C9.468,13.063 9.503,12.907 9.562,12.769 L7.987,11.239 C7.259,11.814 6.34,12.164 5.337,12.164 C3.008,12.164 1.111,10.301 1.111,8.02 C1.111,5.735 3.008,3.87 5.337,3.87 C6.337,3.87 7.262,4.221 7.979,4.793 L9.559,3.253 C9.493,3.11 9.465,2.953 9.465,2.793 C9.47,2.135 10.005,1.609 10.667,1.609 L10.667,1.609 Z M5.342,11.284 C6.098,11.284 6.794,11.034 7.357,10.615 L6.053,9.345 C5.833,9.463 5.581,9.533 5.315,9.533 C4.46,9.533 3.768,8.85 3.768,8.011 C3.768,7.173 4.46,6.493 5.315,6.493 C5.581,6.493 5.832,6.558 6.052,6.677 L7.353,5.407 C6.794,4.989 6.098,4.741 5.343,4.741 C3.503,4.741 2.007,6.213 2.007,8.012 C2.006,9.816 3.502,11.284 5.342,11.284 L5.342,11.284 Z M7.985,9.998 C8.417,9.444 8.677,8.76 8.677,8.007 C8.677,7.253 8.416,6.568 7.983,6.014 L6.676,7.289 C6.794,7.503 6.859,7.745 6.859,8.006 C6.859,8.267 6.794,8.513 6.678,8.722 L7.985,9.998 L7.985,9.998 Z M10.667,0.5 C9.382,0.5 8.339,1.523 8.339,2.783 L8.343,2.874 L7.839,3.366 C7.074,2.968 6.213,2.755 5.343,2.755 C2.391,2.755 -0.01,5.113 -0.01,8.005 C-0.01,10.897 2.391,13.256 5.343,13.256 C6.217,13.256 7.077,13.043 7.846,12.644 L8.343,13.128 L8.339,13.217 C8.339,14.479 9.384,15.5 10.665,15.5 C11.949,15.5 12.992,14.471 12.992,13.217 C12.992,11.959 11.944,10.937 10.665,10.937 L10.557,10.94 L10.065,10.459 C10.473,9.707 10.689,8.861 10.689,8.002 C10.689,7.141 10.471,6.295 10.065,5.539 L10.558,5.057 L10.663,5.058 C11.948,5.058 12.988,4.035 12.988,2.778 C12.994,1.524 11.95,0.5 10.667,0.5 L10.667,0.5 L10.667,0.5 Z M10.667,0.5" id="Shape" fill="#C491BE"></path>
    </g>
</svg>