<?xml version="1.0" encoding="UTF-8" standalone="no"?>
<svg width="24px" height="48px" viewBox="0 0 24 48" version="1.1" xmlns="http://www.w3.org/2000/svg" xmlns:xlink="http://www.w3.org/1999/xlink">
    <title>Feedback</title>
    <g id="Bottom" stroke="none" stroke-width="1" fill="none" fill-rule="evenodd">
        <path d="M18,15 C19.28,15 20,14.6792572 20,13.4430731 L20,5.71692238 C20,4.48073827 19.4755556,4 18.2222222,4 L5.77777778,4 C4.49777778,4 4,4.45498443 4,5.71692238 L4,13.4430731 C4,14.6792572 4.64,15 6,15 L11,15 C11,15 15.0392599,19.0744949 14.9422222,18.997317 C14.9422222,18.997317 15.8755556,19.3262153 16,19 L16,15 L18,15 Z M7,11 L15,11 L15,11.8888889 L7,11.8888889 L7,11 L7,11 Z M7,9 L13,9 L13,10 L7,10 L7,9 L7,9 Z M7,6.93153768 L17,6.93153768 L17,7.84062859 L7,7.84062859 L7,6.93153768 L7,6.93153768 Z M7,6.93153768" id="Feedback" fill="#BBBBBB"></path>
    </g>
</svg>
